<svg width="45" height="47" viewBox="0 0 45 47" fill="none" xmlns="http://www.w3.org/2000/svg">
<g clip-path="url(#clip0_4054_36)">
<path d="M34.568 28.855H9.312C8.432 28.855 7.557 28.713 6.712 28.435C2.781 27.255 0 23.515 0 19.355C0 14.198 4.131 9.987 9.258 9.858C10.373 4.262 15.362 0 21.24 0C26.244 0 30.625 2.992 32.498 7.483C33.041 7.398 33.587 7.355 34.134 7.355C40.062 7.355 44.884 12.177 44.884 18.105C44.884 22.805 41.885 26.913 37.416 28.342C36.491 28.683 35.533 28.855 34.568 28.855ZM9.5 13.855C6.467 13.855 4 16.323 4 19.355C4 21.762 5.61 23.927 7.915 24.621C8.406 24.782 8.859 24.855 9.312 24.855H34.568C35.07 24.855 35.572 24.762 36.062 24.579L36.164 24.543C38.987 23.655 40.884 21.067 40.884 18.105C40.884 14.383 37.856 11.355 34.134 11.355C33.369 11.355 32.602 11.491 31.854 11.76L29.745 12.517L29.231 10.335C28.354 6.605 25.068 4 21.24 4C16.802 4 13.118 7.612 13.028 12.053L12.979 14.455L10.625 13.971C10.254 13.895 9.875 13.855 9.5 13.855Z" fill="url(#paint0_linear_4054_36)"/>
<path d="M10.722 37.7311C10.468 37.7311 10.21 37.6671 9.97299 37.5301C9.25599 37.1161 9.00999 36.1991 9.42399 35.4811L11.423 32.0171C11.838 31.3001 12.756 31.0531 13.472 31.4681C14.189 31.8821 14.435 32.7991 14.021 33.5171L12.022 36.9811C11.745 37.4631 11.24 37.7311 10.722 37.7311Z" fill="url(#paint1_linear_4054_36)"/>
<path d="M29.722 37.7311C29.467 37.7311 29.209 37.6671 28.973 37.5301C28.256 37.1161 28.01 36.1991 28.424 35.4811L30.423 32.0171C30.838 31.3001 31.756 31.0531 32.473 31.4681C33.19 31.8821 33.436 32.7991 33.022 33.5171L31.023 36.9811C30.744 37.4631 30.24 37.7311 29.722 37.7311Z" fill="url(#paint2_linear_4054_36)"/>
<path d="M23.333 34.667H22.667V34C22.667 33.447 22.22 33 21.667 33C21.114 33 20.667 33.447 20.667 34V34.667H20C19.447 34.667 19 35.114 19 35.667C19 36.22 19.447 36.667 20 36.667H20.667V37.334C20.667 37.887 21.114 38.334 21.667 38.334C22.22 38.334 22.667 37.887 22.667 37.334V36.667H23.333C23.886 36.667 24.333 36.22 24.333 35.667C24.333 35.114 23.885 34.667 23.333 34.667Z" fill="url(#paint3_linear_4054_36)"/>
</g>
<path d="M26.333 42.667H25.667V42C25.667 41.447 25.22 41 24.667 41C24.114 41 23.667 41.447 23.667 42V42.667H23C22.447 42.667 22 43.114 22 43.667C22 44.22 22.447 44.667 23 44.667H23.667V45.334C23.667 45.887 24.114 46.334 24.667 46.334C25.22 46.334 25.667 45.887 25.667 45.334V44.667H26.333C26.886 44.667 27.333 44.22 27.333 43.667C27.333 43.114 26.885 42.667 26.333 42.667Z" fill="url(#paint4_linear_4054_36)"/>
<path d="M16.333 42.667H15.667V42C15.667 41.447 15.22 41 14.667 41C14.114 41 13.667 41.447 13.667 42V42.667H13C12.447 42.667 12 43.114 12 43.667C12 44.22 12.447 44.667 13 44.667H13.667V45.334C13.667 45.887 14.114 46.334 14.667 46.334C15.22 46.334 15.667 45.887 15.667 45.334V44.667H16.333C16.886 44.667 17.333 44.22 17.333 43.667C17.333 43.114 16.885 42.667 16.333 42.667Z" fill="url(#paint5_linear_4054_36)"/>
<defs>
<linearGradient id="paint0_linear_4054_36" x1="42.126" y1="-0.682101" x2="1.9571" y2="39.4868" gradientUnits="userSpaceOnUse">
<stop stop-color="#31C2DD"/>
<stop offset="1" stop-color="#0B9BD7"/>
</linearGradient>
<linearGradient id="paint1_linear_4054_36" x1="44.5166" y1="1.70758" x2="4.3474" y2="41.8768" gradientUnits="userSpaceOnUse">
<stop stop-color="#31C2DD"/>
<stop offset="1" stop-color="#0B9BD7"/>
</linearGradient>
<linearGradient id="paint2_linear_4054_36" x1="54.0156" y1="11.2076" x2="13.8466" y2="51.3766" gradientUnits="userSpaceOnUse">
<stop stop-color="#31C2DD"/>
<stop offset="1" stop-color="#0B9BD7"/>
</linearGradient>
<linearGradient id="paint3_linear_4054_36" x1="54.8737" y1="2.4604" x2="15.1013" y2="42.2328" gradientUnits="userSpaceOnUse">
<stop stop-color="#31C2DD"/>
<stop offset="1" stop-color="#0B9BD7"/>
</linearGradient>
<linearGradient id="paint4_linear_4054_36" x1="57.8737" y1="10.4604" x2="18.1013" y2="50.2328" gradientUnits="userSpaceOnUse">
<stop stop-color="#31C2DD"/>
<stop offset="1" stop-color="#0B9BD7"/>
</linearGradient>
<linearGradient id="paint5_linear_4054_36" x1="47.8737" y1="10.4604" x2="8.1013" y2="50.2328" gradientUnits="userSpaceOnUse">
<stop stop-color="#31C2DD"/>
<stop offset="1" stop-color="#0B9BD7"/>
</linearGradient>
<clipPath id="clip0_4054_36">
<rect width="44.884" height="37.731" fill="white"/>
</clipPath>
</defs>
</svg>
