<svg width="45" height="37" viewBox="0 0 45 37" fill="none" xmlns="http://www.w3.org/2000/svg">
<g clip-path="url(#clip0_4054_43)">
<path d="M34.133 7.355C33.586 7.355 33.04 7.398 32.498 7.483C30.625 2.992 26.243 0 21.24 0C15.361 0 10.372 4.262 9.258 9.858C4.131 9.988 0 14.198 0 19.355C0 23.514 2.781 27.254 6.713 28.435C7.558 28.713 8.433 28.855 9.313 28.855H34.569C35.535 28.855 36.492 28.682 37.416 28.342C41.885 26.911 44.884 22.805 44.884 18.105C44.883 12.178 40.061 7.355 34.133 7.355ZM36.163 24.543L36.06 24.579C35.572 24.763 35.07 24.855 34.568 24.855H9.312C8.858 24.855 8.405 24.782 7.914 24.621C5.609 23.929 4 21.763 4 19.355C4 16.323 6.468 13.855 9.5 13.855C9.875 13.855 10.253 13.894 10.624 13.97L12.978 14.454L13.028 12.052C13.117 7.612 16.802 4 21.24 4C25.067 4 28.353 6.605 29.23 10.336L29.744 12.519L31.854 11.76C32.601 11.491 33.368 11.356 34.132 11.356C37.854 11.356 40.882 14.384 40.882 18.106C40.883 21.067 38.986 23.655 36.163 24.543Z" fill="url(#paint0_linear_4054_43)"/>
<path d="M18.333 33.667H17.666V33C17.666 32.447 17.219 32 16.666 32C16.113 32 15.666 32.447 15.666 33V33.667H15C14.447 33.667 14 34.114 14 34.667C14 35.22 14.447 35.667 15 35.667H15.666V36.334C15.666 36.887 16.113 37.334 16.666 37.334C17.219 37.334 17.666 36.887 17.666 36.334V35.667H18.333C18.886 35.667 19.333 35.22 19.333 34.667C19.333 34.114 18.885 33.667 18.333 33.667Z" fill="url(#paint1_linear_4054_43)"/>
<path d="M29.333 33.667H28.666V33C28.666 32.447 28.219 32 27.666 32C27.113 32 26.666 32.447 26.666 33V33.667H26C25.447 33.667 25 34.114 25 34.667C25 35.22 25.447 35.667 26 35.667H26.666V36.334C26.666 36.887 27.113 37.334 27.666 37.334C28.219 37.334 28.666 36.887 28.666 36.334V35.667H29.333C29.886 35.667 30.333 35.22 30.333 34.667C30.333 34.114 29.885 33.667 29.333 33.667Z" fill="url(#paint2_linear_4054_43)"/>
</g>
<defs>
<linearGradient id="paint0_linear_4054_43" x1="40.9902" y1="0.452599" x2="0.564599" y2="40.8783" gradientUnits="userSpaceOnUse">
<stop stop-color="#31C2DD"/>
<stop offset="1" stop-color="#0B9BD7"/>
</linearGradient>
<linearGradient id="paint1_linear_4054_43" x1="48.3952" y1="2.9375" x2="7.9712" y2="43.3615" gradientUnits="userSpaceOnUse">
<stop stop-color="#31C2DD"/>
<stop offset="1" stop-color="#0B9BD7"/>
</linearGradient>
<linearGradient id="paint2_linear_4054_43" x1="49.5221" y1="12.811" x2="9.09641" y2="53.2367" gradientUnits="userSpaceOnUse">
<stop stop-color="#31C2DD"/>
<stop offset="1" stop-color="#0B9BD7"/>
</linearGradient>
<clipPath id="clip0_4054_43">
<rect width="44.883" height="36.98" fill="white"/>
</clipPath>
</defs>
</svg>
