<svg width="59" height="53" viewBox="0 0 59 53" fill="none" xmlns="http://www.w3.org/2000/svg">
<path d="M9.49903 43.4645C9.24503 43.4645 8.98703 43.4005 8.75003 43.2635C8.03303 42.8495 7.78703 41.9325 8.20103 41.2145L10.2 37.7505C10.615 37.0335 11.533 36.7865 12.249 37.2015C12.966 37.6155 13.212 38.5325 12.798 39.2505L10.799 42.7145C10.522 43.1965 10.017 43.4645 9.49903 43.4645Z" fill="url(#paint0_linear_4055_68)"/>
<path d="M20.499 43.4645C20.245 43.4645 19.987 43.4005 19.75 43.2635C19.033 42.8495 18.787 41.9325 19.201 41.2145L21.2 37.7505C21.615 37.0335 22.533 36.7865 23.249 37.2015C23.966 37.6155 24.212 38.5325 23.798 39.2505L21.799 42.7145C21.522 43.1965 21.017 43.4645 20.499 43.4645Z" fill="url(#paint1_linear_4055_68)"/>
<path d="M31.499 43.4645C31.245 43.4645 30.987 43.4005 30.75 43.2635C30.033 42.8495 29.787 41.9325 30.201 41.2145L32.2 37.7505C32.615 37.0335 33.533 36.7865 34.249 37.2015C34.966 37.6155 35.212 38.5325 34.798 39.2505L32.799 42.7145C32.522 43.1965 32.017 43.4645 31.499 43.4645Z" fill="url(#paint2_linear_4055_68)"/>
<g clip-path="url(#clip0_4055_68)">
<path d="M50.395 5.557C49.982 5.557 49.57 5.589 49.16 5.654C47.744 2.261 44.435 0 40.655 0C36.215 0 32.445 3.22 31.603 7.447C30.264 7.481 29.02 7.888 27.959 8.562C26.021 7.287 23.706 6.556 21.239 6.556C15.361 6.556 10.372 10.818 9.258 16.414C4.132 16.544 0 20.755 0 25.912C0 30.071 2.781 33.811 6.713 34.992C7.558 35.27 8.433 35.412 9.313 35.412H34.569C35.535 35.412 36.492 35.239 37.417 34.899C41.887 33.469 44.885 29.362 44.885 24.662C44.885 23.669 44.739 22.711 44.486 21.798H50.725C51.468 21.798 52.204 21.662 52.836 21.423C56.233 20.354 58.517 17.241 58.517 13.678C58.516 9.2 54.872 5.557 50.395 5.557ZM36.164 31.1L36.062 31.136C35.572 31.32 35.07 31.412 34.568 31.412H9.312C8.859 31.412 8.406 31.339 7.915 31.178C5.61 30.484 4 28.319 4 25.912C4 22.88 6.468 20.412 9.5 20.412C9.875 20.412 10.254 20.451 10.626 20.527L12.98 21.011L13.029 18.609C13.119 14.169 16.803 10.556 21.241 10.556C25.069 10.556 28.354 13.161 29.232 16.892L29.745 19.074L31.854 18.317C32.602 18.047 33.37 17.912 34.134 17.912C37.857 17.912 40.884 20.94 40.884 24.662C40.884 27.624 38.987 30.212 36.164 31.1ZM51.851 18.567C51.482 18.706 51.103 18.776 50.724 18.776H43.12C41.196 15.85 37.89 13.912 34.135 13.912C33.588 13.912 33.042 13.955 32.5 14.04C31.987 12.81 31.28 11.697 30.43 10.723C30.857 10.571 31.308 10.467 31.787 10.467C32.072 10.467 32.357 10.496 32.636 10.554L34.415 10.922L34.452 9.106C34.52 5.752 37.304 3.022 40.656 3.022C43.547 3.022 46.029 4.991 46.692 7.808L47.08 9.456L48.674 8.884C49.238 8.681 49.818 8.578 50.396 8.578C53.208 8.578 55.496 10.866 55.496 13.678C55.494 15.915 54.062 17.869 51.851 18.567Z" fill="url(#paint3_linear_4055_68)"/>
<path d="M48.499 30.4645C48.245 30.4645 47.987 30.4005 47.75 30.2635C47.033 29.8495 46.787 28.9325 47.201 28.2145L49.2 24.7505C49.615 24.0335 50.533 23.7865 51.249 24.2015C51.966 24.6155 52.212 25.5325 51.798 26.2505L49.799 29.7145C49.522 30.1965 49.017 30.4645 48.499 30.4645Z" fill="url(#paint4_linear_4055_68)"/>
</g>
<path d="M12.499 52.4645C12.245 52.4645 11.987 52.4005 11.75 52.2635C11.033 51.8495 10.787 50.9325 11.201 50.2145L13.2 46.7505C13.615 46.0335 14.533 45.7865 15.249 46.2015C15.966 46.6155 16.212 47.5325 15.798 48.2505L13.799 51.7145C13.522 52.1965 13.017 52.4645 12.499 52.4645Z" fill="url(#paint5_linear_4055_68)"/>
<path d="M23.499 52.4645C23.245 52.4645 22.987 52.4005 22.75 52.2635C22.033 51.8495 21.787 50.9325 22.201 50.2145L24.2 46.7505C24.615 46.0335 25.533 45.7865 26.249 46.2015C26.966 46.6155 27.212 47.5325 26.798 48.2505L24.799 51.7145C24.522 52.1965 24.017 52.4645 23.499 52.4645Z" fill="url(#paint6_linear_4055_68)"/>
<defs>
<linearGradient id="paint0_linear_4055_68" x1="43.2936" y1="7.44098" x2="3.12444" y2="47.6102" gradientUnits="userSpaceOnUse">
<stop stop-color="#31C2DD"/>
<stop offset="1" stop-color="#0B9BD7"/>
</linearGradient>
<linearGradient id="paint1_linear_4055_68" x1="54.2936" y1="7.44098" x2="14.1244" y2="47.6102" gradientUnits="userSpaceOnUse">
<stop stop-color="#31C2DD"/>
<stop offset="1" stop-color="#0B9BD7"/>
</linearGradient>
<linearGradient id="paint2_linear_4055_68" x1="65.2936" y1="7.44098" x2="25.1244" y2="47.6102" gradientUnits="userSpaceOnUse">
<stop stop-color="#31C2DD"/>
<stop offset="1" stop-color="#0B9BD7"/>
</linearGradient>
<linearGradient id="paint3_linear_4055_68" x1="48.3164" y1="0.4604" x2="10.5301" y2="38.2467" gradientUnits="userSpaceOnUse">
<stop stop-color="#31C2DD"/>
<stop offset="1" stop-color="#0B9BD7"/>
</linearGradient>
<linearGradient id="paint4_linear_4055_68" x1="82.2936" y1="-5.55902" x2="42.1244" y2="34.6102" gradientUnits="userSpaceOnUse">
<stop stop-color="#31C2DD"/>
<stop offset="1" stop-color="#0B9BD7"/>
</linearGradient>
<linearGradient id="paint5_linear_4055_68" x1="46.2936" y1="16.441" x2="6.12444" y2="56.6102" gradientUnits="userSpaceOnUse">
<stop stop-color="#31C2DD"/>
<stop offset="1" stop-color="#0B9BD7"/>
</linearGradient>
<linearGradient id="paint6_linear_4055_68" x1="57.2936" y1="16.441" x2="17.1244" y2="56.6102" gradientUnits="userSpaceOnUse">
<stop stop-color="#31C2DD"/>
<stop offset="1" stop-color="#0B9BD7"/>
</linearGradient>
<clipPath id="clip0_4055_68">
<rect width="58.516" height="35.412" fill="white"/>
</clipPath>
</defs>
</svg>
