<svg width="45" height="45" viewBox="0 0 45 45" fill="none" xmlns="http://www.w3.org/2000/svg">
<g clip-path="url(#clip0_4055_81)">
<path d="M34.133 7.355C33.586 7.355 33.04 7.398 32.498 7.483C30.625 2.992 26.244 0 21.24 0C15.361 0 10.372 4.262 9.258 9.858C4.131 9.987 0 14.198 0 19.355C0 23.514 2.781 27.254 6.713 28.435C7.558 28.713 8.433 28.855 9.313 28.855H34.569C35.534 28.855 36.491 28.682 37.417 28.342C41.886 26.911 44.884 22.804 44.884 18.105C44.883 12.178 40.061 7.355 34.133 7.355ZM36.165 24.544L36.062 24.579C35.573 24.763 35.07 24.855 34.569 24.855H9.312C8.858 24.855 8.405 24.782 7.914 24.621C5.61 23.929 4 21.763 4 19.355C4 16.323 6.467 13.855 9.5 13.855C9.875 13.855 10.253 13.894 10.625 13.97L12.979 14.453L13.027 12.051C13.118 7.612 16.802 4 21.24 4C25.067 4 28.353 6.605 29.231 10.336L29.745 12.518L31.854 11.761C32.602 11.491 33.37 11.356 34.133 11.356C37.856 11.356 40.883 14.384 40.883 18.106C40.883 21.067 38.987 23.655 36.165 24.544Z" fill="url(#paint0_linear_4055_81)"/>
<path d="M13.472 31.4691C12.755 31.0541 11.837 31.3011 11.423 32.0181L9.42399 35.4821C9.00999 36.2001 9.25599 37.1171 9.97299 37.5311C10.209 37.6681 10.467 37.7321 10.722 37.7321C11.241 37.7321 11.745 37.4631 12.023 36.9821L14.022 33.5181C14.435 32.8001 14.189 31.8831 13.472 31.4691Z" fill="url(#paint1_linear_4055_81)"/>
<path d="M33.249 38.2015C32.532 37.7865 31.614 38.0335 31.2 38.7505L29.201 42.2145C28.787 42.9325 29.033 43.8495 29.75 44.2635C29.986 44.4005 30.244 44.4645 30.499 44.4645C31.018 44.4645 31.522 44.1955 31.8 43.7145L33.799 40.2505C34.212 39.5325 33.966 38.6155 33.249 38.2015Z" fill="url(#paint2_linear_4055_81)"/>
<path d="M25.25 34.459H22.94L23.498 33.556C23.934 32.852 23.716 31.927 23.011 31.492C22.306 31.058 21.381 31.276 20.947 31.98L18.975 35.171C18.689 35.634 18.676 36.215 18.941 36.69C19.206 37.166 19.707 37.46 20.251 37.46H22.689L21.943 38.788C21.937 38.8 21.931 38.809 21.925 38.82C21.885 38.873 21.844 38.924 21.812 38.983L19.882 42.486C19.482 43.213 19.746 44.124 20.471 44.524C20.71 44.656 20.969 44.714 21.223 44.711C21.741 44.7 22.241 44.422 22.509 43.936L23.358 42.396C24.523 40.321 26.559 36.695 26.559 36.695C26.82 36.23 26.814 35.663 26.545 35.203C26.276 34.743 25.783 34.459 25.25 34.459Z" fill="url(#paint3_linear_4055_81)"/>
<path d="M15.333 41.667H14.666V41C14.666 40.447 14.219 40 13.666 40C13.113 40 12.666 40.447 12.666 41V41.667H12C11.447 41.667 11 42.114 11 42.667C11 43.22 11.447 43.667 12 43.667H12.666V44.334C12.666 44.887 13.113 45.334 13.666 45.334C14.219 45.334 14.666 44.887 14.666 44.334V43.667H15.333C15.886 43.667 16.333 43.22 16.333 42.667C16.333 42.114 15.885 41.667 15.333 41.667Z" fill="url(#paint4_linear_4055_81)"/>
<path d="M35.333 32.667H34.666V32C34.666 31.447 34.219 31 33.666 31C33.113 31 32.666 31.447 32.666 32V32.667H32C31.447 32.667 31 33.114 31 33.667C31 34.22 31.447 34.667 32 34.667H32.666V35.334C32.666 35.887 33.113 36.334 33.666 36.334C34.219 36.334 34.666 35.887 34.666 35.334V34.667H35.333C35.886 34.667 36.333 34.22 36.333 33.667C36.333 33.114 35.885 32.667 35.333 32.667Z" fill="url(#paint5_linear_4055_81)"/>
</g>
<defs>
<linearGradient id="paint0_linear_4055_81" x1="39.0796" y1="2.3638" x2="1.5504" y2="39.8929" gradientUnits="userSpaceOnUse">
<stop stop-color="#31C2DD"/>
<stop offset="1" stop-color="#0B9BD7"/>
</linearGradient>
<linearGradient id="paint1_linear_4055_81" x1="41.4692" y1="4.75296" x2="3.93971" y2="42.2826" gradientUnits="userSpaceOnUse">
<stop stop-color="#31C2DD"/>
<stop offset="1" stop-color="#0B9BD7"/>
</linearGradient>
<linearGradient id="paint2_linear_4055_81" x1="61.2462" y1="11.4854" x2="23.7167" y2="49.015" gradientUnits="userSpaceOnUse">
<stop stop-color="#31C2DD"/>
<stop offset="1" stop-color="#0B9BD7"/>
</linearGradient>
<linearGradient id="paint3_linear_4055_81" x1="48.2085" y1="11.4902" x2="10.6783" y2="49.0204" gradientUnits="userSpaceOnUse">
<stop stop-color="#31C2DD"/>
<stop offset="1" stop-color="#0B9BD7"/>
</linearGradient>
<linearGradient id="paint4_linear_4055_81" x1="45.3952" y1="10.9375" x2="4.9712" y2="51.3615" gradientUnits="userSpaceOnUse">
<stop stop-color="#31C2DD"/>
<stop offset="1" stop-color="#0B9BD7"/>
</linearGradient>
<linearGradient id="paint5_linear_4055_81" x1="65.3952" y1="1.9375" x2="24.9712" y2="42.3615" gradientUnits="userSpaceOnUse">
<stop stop-color="#31C2DD"/>
<stop offset="1" stop-color="#0B9BD7"/>
</linearGradient>
<clipPath id="clip0_4055_81">
<rect width="44.883" height="44.71" fill="white"/>
</clipPath>
</defs>
</svg>
